<?xml version="1.0" encoding="UTF-8"?>
<svg width="512.83" height="79.027" version="1.1" viewBox="0 0 135.69 20.909" xmlns="http://www.w3.org/2000/svg">
 <g transform="translate(-7.4843 -273.04)">
  <g transform="translate(-2.7949 .74531)">
   <g stroke-width=".26458" style="font-feature-settings:normal;font-variant-caps:normal;font-variant-ligatures:normal;font-variant-numeric:normal" aria-label="Games by Tim">
    <g fill="#366aae">
     <path d="m21.603 287.2q-1.7992 1.7992-4.191 1.7992-1.4817 0-2.794-0.59267-1.2912-0.59266-2.2648-1.6298-0.9525-1.0372-1.524-2.4342-0.55033-1.4182-0.55033-3.048 0-1.5452 0.55033-2.8998 0.5715-1.3758 1.5452-2.3918 0.99483-1.0372 2.3283-1.6298 1.3335-0.61383 2.8998-0.61383 2.1167 0 3.6195 0.889 1.524 0.889 2.286 2.3918l-2.1802 1.6087q-0.5715-1.1218-1.6087-1.7145-1.016-0.59267-2.2225-0.59267-0.9525 0-1.7568 0.40217-0.78317 0.40217-1.3547 1.1007-0.55033 0.6985-0.86783 1.6087-0.29633 0.91017-0.29633 1.9262 0 1.0583 0.33867 1.9897 0.33867 0.91016 0.93133 1.5875 0.59267 0.67733 1.397 1.0795 0.8255 0.381 1.778 0.381 2.1802 0 3.937-2.0532v-1.0583h-3.0268v-2.1378h5.4398v7.7258h-2.413z"/>
     <path d="m29.257 289.1q-0.80433 0-1.5028-0.254-0.6985-0.27516-1.2065-0.74083-0.508-0.48683-0.80433-1.1218-0.27517-0.635-0.27517-1.397 0-0.78317 0.33867-1.4393 0.35983-0.67733 0.97367-1.143 0.635-0.46566 1.5028-0.71966 0.86783-0.27517 1.905-0.27517 0.74083 0 1.4393 0.127 0.71967 0.127 1.27 0.35983v-0.635q0-1.1007-0.635-1.6933-0.61383-0.59267-1.8415-0.59267-0.889 0-1.7357 0.3175-0.84667 0.3175-1.7357 0.93134l-0.86783-1.7992q2.1378-1.4182 4.6143-1.4182 2.3918 0 3.7042 1.1853 1.3335 1.1642 1.3335 3.3867v3.4502q0 0.4445 0.14817 0.635 0.16933 0.1905 0.52917 0.21167v2.413q-0.71967 0.14816-1.2488 0.14816-0.80433 0-1.2488-0.35983-0.42333-0.35983-0.52917-0.9525l-0.0635-0.61383q-0.74083 0.97366-1.7992 1.4817t-2.2648 0.508zm0.80433-2.0743q0.71967 0 1.3547-0.254 0.65617-0.254 1.016-0.67733 0.46567-0.35984 0.46567-0.80434v-1.27q-0.508-0.1905-1.1007-0.29633-0.59267-0.127-1.143-0.127-1.1007 0-1.7992 0.508-0.6985 0.48683-0.6985 1.2488 0 0.71967 0.55033 1.2065 0.55033 0.46567 1.3547 0.46567z"/>
     <path d="m55.615 288.89h-2.8363v-6.223q0-1.3335-0.46567-1.9473-0.4445-0.61383-1.2488-0.61383-0.84667 0-1.5875 0.65617-0.74083 0.635-1.0583 1.6722v6.4558h-2.8363v-6.223q0-1.3335-0.46567-1.9473-0.4445-0.61383-1.2488-0.61383-0.8255 0-1.5875 0.635-0.74083 0.635-1.0583 1.6722v6.477h-2.8363v-11.091h2.5612v2.0532q0.61383-1.0795 1.6722-1.651 1.0795-0.59267 2.4553-0.59267 1.397 0 2.159 0.67734 0.762 0.67733 0.97367 1.6722 0.67733-1.143 1.7145-1.7357 1.0372-0.61384 2.3707-0.61384 1.016 0 1.6722 0.381 0.65617 0.381 1.016 0.99484 0.35983 0.61383 0.48683 1.397 0.14817 0.78316 0.14817 1.5875z"/>
    </g>
    <path d="m63.248 289.1q-1.3335 0-2.413-0.4445-1.0795-0.46566-1.8415-1.2488t-1.1853-1.8203q-0.40217-1.0372-0.40217-2.1802 0-1.1853 0.40217-2.2225 0.40217-1.0583 1.1642-1.8415 0.762-0.80433 1.8415-1.27 1.1007-0.46567 2.4553-0.46567 1.3547 0 2.413 0.46567 1.0795 0.46567 1.8203 1.2488 0.762 0.78317 1.143 1.8203 0.40217 1.0372 0.40217 2.159 0 0.27516-0.02117 0.52916 0 0.254-0.04233 0.42334h-8.5725q0.0635 0.65616 0.3175 1.1642t0.65617 0.86784q0.40217 0.35983 0.91017 0.55033t1.0583 0.1905q0.84667 0 1.5875-0.40217 0.762-0.42333 1.0372-1.1007l2.4342 0.67733q-0.61383 1.27-1.9685 2.0955-1.3335 0.80433-3.1962 0.80433zm2.8787-6.6887q-0.10583-1.2488-0.93133-1.9897-0.80433-0.762-1.9685-0.762-0.5715 0-1.0795 0.21167-0.48683 0.1905-0.86783 0.55033t-0.635 0.86783q-0.23283 0.508-0.27517 1.1218z" opacity="0"/>
    <path d="m74.987 289.1q-1.397 0-2.7305-0.4445t-2.286-1.27l1.0583-1.778q1.016 0.71967 1.9685 1.1007 0.97367 0.35983 1.9262 0.35983 0.84667 0 1.3335-0.3175t0.48683-0.91016q0-0.59267-0.5715-0.86784-0.5715-0.27516-1.8627-0.635-1.0795-0.29633-1.8415-0.5715-0.762-0.27516-1.2277-0.61383-0.46567-0.35983-0.67733-0.80433-0.21167-0.46567-0.21167-1.1007 0-0.84667 0.3175-1.524 0.33867-0.67733 0.93133-1.143 0.59267-0.48683 1.3758-0.74083 0.80433-0.254 1.7357-0.254 1.2488 0 2.3283 0.35983 1.1007 0.35983 2.0108 1.1642l-1.143 1.7145q-0.84667-0.635-1.651-0.93134-0.78317-0.29633-1.5663-0.29633-0.71967 0-1.2065 0.29633-0.48683 0.29634-0.48683 0.9525 0 0.29634 0.10583 0.48684 0.127 0.1905 0.381 0.33866 0.254 0.14817 0.65617 0.29634 0.42333 0.127 1.0372 0.27516 1.143 0.29634 1.9473 0.59267 0.8255 0.29633 1.3335 0.67733 0.52917 0.381 0.762 0.889 0.254 0.48684 0.254 1.1853 0 1.6298-1.2065 2.5823-1.2065 0.93133-3.2808 0.93133z" fill="#366aae"/>
    <g fill="#24a52c">
     <path d="m94.482 282.43c0-1.6104-0.73731-3.2015-2.5806-3.2015-1.1836 0-2.2507 0.48507-3.085 1.9791 0.32985-1.0283 0.7179-2.3283 0.87312-3.1432l0.60149-3.2403-2.1925 0.38806-2.5224 12.883c-0.0388-0.0194 1.5716 0.95074 3.4537 0.95074 3.4925 0 5.4522-2.9492 5.4522-6.6164zm-3.2985-1.6104c0.65969 0 0.98954 0.40746 0.98954 1.5328 0 2.2313-0.87312 5.1999-3.1821 5.1999-0.29104 0-0.7179-0.0388-1.106-0.17462l0.21343-1.0866c0.54328-2.7746 1.8627-5.4716 3.085-5.4716z" style="font-feature-settings:normal;font-variant-caps:normal;font-variant-ligatures:normal;font-variant-numeric:normal"/>
     <path d="m104.97 279.38h-2.1731l-0.60148 3.085c-0.40746 2.1343-1.8239 4.8313-3.2015 4.8313-0.79551 0-1.0478-0.48507-1.0478-1.106 0-1.688 1.1642-3.1821 1.1642-4.9865 0-0.62088-0.09701-1.397-0.36865-1.9597l-1.8433 0.46567c0.05821 0.27164 0.09701 0.83432 0.09701 1.3582 0 1.8239-1.2612 3.5701-1.2612 5.6074 0 1.4358 0.75671 2.3671 2.4642 2.3671 1.5522 0 2.8522-0.87313 3.6089-2.6582l0.36865-0.81492c-0.0388 0.42686-0.15522 1.106-0.15522 1.5716 0 1.3194 0.0776 1.8239 0.0776 2.3089 0 1.106-0.7179 1.9985-1.9209 1.9985-1.1836 0-2.503-0.64029-3.4925-1.0478l-0.75671 1.6298c0.89253 0.42686 2.4836 1.1642 3.9776 1.1642 2.503 0 4.1134-0.93133 4.1134-3.7835 0-1.1836-0.31045-2.0567-0.31045-3.3567 0-1.3194 1.2806-6.8104 1.2612-6.6746z" style="font-feature-settings:normal;font-variant-caps:normal;font-variant-ligatures:normal;font-variant-numeric:normal"/>
     <path d="m111.83 276.33h3.4625l-2.4077 12.566h3.7377l2.4306-12.566h3.6001l0.59619-2.7746h-11.419z" style="font-feature-settings:normal;font-variant-caps:normal;font-variant-ligatures:normal;font-variant-numeric:normal"/>
     <path d="m126.34 272.29c-1.33 0-2.1555 0.96309-2.1555 2.0638 0 1.0548 0.59619 1.8115 1.9032 1.8115s2.1555-0.94016 2.1555-2.0408c0-1.1236-0.59619-1.8344-1.9032-1.8344zm-1.6739 16.762c1.2841 0 2.4994-0.57326 2.4994-0.57326v-2.4765c-0.0688 0.0229-0.71085 0.25223-1.0319 0.25223-0.27516 0-0.29809-0.20637-0.29809-0.41275 0-0.13758 0.0229-0.20637 0.0917-0.59619l1.4905-7.59h-3.5084l-1.6969 8.4614c-0.0459 0.25223-0.0917 0.50447-0.0917 0.71085 0 1.33 0.94015 2.2243 2.5453 2.2243z" style="font-feature-settings:normal;font-variant-caps:normal;font-variant-ligatures:normal;font-variant-numeric:normal"/>
     <path d="m145.97 280.22c0-1.8115-0.89429-2.8434-2.8663-2.8434-1.4676 0-2.4765 0.64205-3.302 2.1555-0.22931-1.4217-1.1007-2.1555-2.7287-2.1555-1.7656 0-2.8663 0.91722-3.7835 2.9122l-0.2981 0.64205c0.11466-0.96308 0.16052-1.3529 0.16052-1.6969 0-0.73378-0.20638-1.4217-0.64206-1.9032l-2.8892 1.1236c0.18345 0.2981 0.71085 1.1695 0.71085 2.5912 0 0.55033-0.0688 1.2153-0.22931 1.972l-1.1694 5.8702h3.5542l0.73378-3.8294c0.41275-2.0867 1.5364-4.7466 2.6141-4.7466 0.38982 0 0.52741 0.29809 0.52741 0.71084 0 0.52741-0.0917 1.2382-0.22931 1.995l-1.1695 5.8702h3.5542l0.73378-3.8523c0.41275-2.0638 1.5134-4.7237 2.6141-4.7237 0.36689 0 0.50447 0.29809 0.50447 0.71084 0 1.8803-1.2153 3.9441-1.2153 6.1225 0 0.38982 0 0.8255 0.16052 1.7427h3.5772c-0.2293-1.009-0.29809-1.9262-0.29809-2.4765 0-1.6969 1.3758-3.623 1.3758-6.1912z" style="font-feature-settings:normal;font-variant-caps:normal;font-variant-ligatures:normal;font-variant-numeric:normal"/>
    </g>
   </g>
   <g transform="rotate(-16.076)" fill="#366aae" aria-label="e">
    <path d="m-17.711 295.53q-1.3335 0-2.413-0.4445-1.0795-0.46567-1.8415-1.2488-0.762-0.78317-1.1853-1.8203-0.40217-1.0372-0.40217-2.1802 0-1.1853 0.40217-2.2225 0.40217-1.0583 1.1642-1.8415 0.762-0.80434 1.8415-1.27 1.1007-0.46567 2.4553-0.46567 1.3547 0 2.413 0.46567 1.0795 0.46566 1.8203 1.2488 0.762 0.78317 1.143 1.8203 0.40217 1.0372 0.40217 2.159 0 0.27517-0.02117 0.52917 0 0.254-0.04233 0.42333h-8.5725q0.0635 0.65617 0.3175 1.1642t0.65617 0.86783q0.40217 0.35984 0.91017 0.55034t1.0583 0.1905q0.84667 0 1.5875-0.40217 0.762-0.42333 1.0372-1.1007l2.4342 0.67734q-0.61383 1.27-1.9685 2.0955-1.3335 0.80433-3.1962 0.80433zm2.8787-6.6887q-0.10583-1.2488-0.93133-1.9897-0.80433-0.762-1.9685-0.762-0.5715 0-1.0795 0.21166-0.48683 0.1905-0.86783 0.55034-0.381 0.35983-0.635 0.86783-0.23283 0.508-0.27517 1.1218z" fill="#366aae" stroke-width=".26458" style="font-feature-settings:normal;font-variant-caps:normal;font-variant-ligatures:normal;font-variant-numeric:normal"/>
   </g>
  </g>
 </g>
</svg>
